<svg width="24" height="24" viewBox="0 0 24 24" fill="none" xmlns="http://www.w3.org/2000/svg">
<path fill-rule="evenodd" clip-rule="evenodd" d="M7 4C6.44772 4 6 4.44772 6 5V19.2757C6 19.543 6.32314 19.6769 6.51213 19.4879L7.29289 18.7071C7.68342 18.3166 8.31658 18.3166 8.70711 18.7071L9.29289 19.2929C9.68342 19.6834 10.3166 19.6834 10.7071 19.2929L11.2929 18.7071C11.6834 18.3166 12.3166 18.3166 12.7071 18.7071L13.2929 19.2929C13.6834 19.6834 14.3166 19.6834 14.7071 19.2929L15.2929 18.7071C15.6834 18.3166 16.3166 18.3166 16.7071 18.7071L17.4879 19.4879C17.6769 19.6769 18 19.543 18 19.2757V5C18 4.44772 17.5523 4 17 4H7ZM8.5 7C8.22386 7 8 7.22386 8 7.5C8 7.77614 8.22386 8 8.5 8H14.5C14.7761 8 15 7.77614 15 7.5C15 7.22386 14.7761 7 14.5 7H8.5ZM8 10.5C8 10.2239 8.22386 10 8.5 10H12.5C12.7761 10 13 10.2239 13 10.5C13 10.7761 12.7761 11 12.5 11H8.5C8.22386 11 8 10.7761 8 10.5Z" fill="#EA4C89"/>
</svg>
