<svg width="44" height="44" viewBox="0 0 44 44" fill="none" xmlns="http://www.w3.org/2000/svg">
<path d="M30.8807 14.7071L30.1736 14V14L30.8807 14.7071ZM24.5878 21L23.8807 20.2929L23.5878 20.5858V21H24.5878ZM13.2949 14.7071L14.002 14L13.2949 14.7071ZM19.5878 21H20.5878V20.5858L20.2949 20.2929L19.5878 21ZM19.8807 27.2929L19.1736 28L19.8807 27.2929ZM22.8807 30.2929L23.5878 29.5858L22.8807 30.2929ZM14.002 14H30.1736V12H14.002V14ZM30.1736 14L23.8807 20.2929L25.2949 21.7071L31.5878 15.4142L30.1736 14ZM12.5878 15.4142L18.8807 21.7071L20.2949 20.2929L14.002 14L12.5878 15.4142ZM18.5878 21V26.5858H20.5878V21H18.5878ZM19.1736 28L22.1736 31L23.5878 29.5858L20.5878 26.5858L19.1736 28ZM25.5878 29.5858V21H23.5878V29.5858H25.5878ZM18.5878 26.5858C18.5878 27.1162 18.7985 27.6249 19.1736 28L20.5878 26.5858H18.5878ZM30.1736 14L30.1736 14L31.5878 15.4142C32.8477 14.1543 31.9554 12 30.1736 12V14ZM22.1736 31C23.4335 32.2599 25.5878 31.3676 25.5878 29.5858H23.5878H23.5878L22.1736 31ZM14.002 12C12.2202 12 11.3279 14.1543 12.5878 15.4142L14.002 14L14.002 14V12Z" fill="#1C1D21"/>
</svg>
