<svg width="28" height="11" viewBox="0 0 28 11" fill="none" xmlns="http://www.w3.org/2000/svg">
<path d="M0.441977 11V0.431152H4.77059C5.70321 0.431152 6.45272 0.67041 7.01912 1.14893C7.58553 1.63232 7.86873 2.27197 7.86873 3.06787C7.86873 3.62939 7.68807 4.12988 7.32674 4.56934C6.96541 5.01367 6.52108 5.27979 5.99373 5.36768V5.42627C6.71151 5.50928 7.29012 5.78516 7.72957 6.25391C8.17391 6.72754 8.39608 7.31348 8.39608 8.01172C8.39608 8.94434 8.07625 9.67432 7.43661 10.2017C6.79696 10.7339 5.91317 11 4.78524 11H0.441977ZM2.0826 4.92822H4.02352C4.73641 4.92822 5.28329 4.78662 5.66414 4.50342C6.045 4.22021 6.23543 3.81738 6.23543 3.29492C6.23543 2.80664 6.0743 2.43066 5.75204 2.16699C5.42489 1.90332 4.96346 1.77148 4.36776 1.77148H2.0826V4.92822ZM4.45565 9.65967C5.96444 9.65967 6.71883 9.07617 6.71883 7.90918C6.71883 6.75684 5.9327 6.18066 4.36043 6.18066H2.0826V9.65967H4.45565ZM12.2581 11V6.67139L8.53739 0.431152H10.3684L13.0638 5.09668H13.115L15.8103 0.431152H17.6267L13.8987 6.67139V11H12.2581ZM18.3906 11V0.431152H19.8774L25.356 8.22412H25.4146V0.431152H27.0112V11H25.5317L20.0532 3.21436H19.9873V11H18.3906Z" fill="#959AA7"/>
</svg>
