<svg width="24" height="24" viewBox="0 0 24 24" fill="none" xmlns="http://www.w3.org/2000/svg">
<path fill-rule="evenodd" clip-rule="evenodd" d="M12.7071 2.29289C13.0976 2.68342 13.0976 3.31658 12.7071 3.70711L9.70711 6.70711C9.31658 7.09763 8.68342 7.09763 8.29289 6.70711C7.90237 6.31658 7.90237 5.68342 8.29289 5.29289L11.2929 2.29289C11.6834 1.90237 12.3166 1.90237 12.7071 2.29289ZM7 8C5.89543 8 5 8.89543 5 10V13C5 15.7614 7.23858 18 10 18H6.5C6.22386 18 6 18.2239 6 18.5C6 18.7761 6.22386 19 6.5 19H17.5C17.7761 19 18 18.7761 18 18.5C18 18.2239 17.7761 18 17.5 18H14C16.7614 18 19 15.7614 19 13V10C19 8.89543 18.1046 8 17 8H7ZM17.7071 3.70711C18.0976 3.31658 18.0976 2.68342 17.7071 2.29289C17.3166 1.90237 16.6834 1.90237 16.2929 2.29289L13.2929 5.29289C12.9024 5.68342 12.9024 6.31658 13.2929 6.70711C13.6834 7.09763 14.3166 7.09763 14.7071 6.70711L17.7071 3.70711Z" fill="#5B3A3A"/>
</svg>
