<svg width="24" height="24" viewBox="0 0 24 24" fill="none" xmlns="http://www.w3.org/2000/svg">
<path d="M11.5238 4.17753C11.7978 3.94082 12.2022 3.94082 12.4762 4.17753L20.743 11.3179C21.2588 11.7634 20.9461 12.6152 20.2668 12.6152L19.3178 12.6152V19.252C19.3178 19.6592 18.9902 19.9894 18.586 19.9894L14.7318 20C14.3276 20 14 19.6698 14 19.2626V15.623C14 15.2157 13.6542 14.9033 13.25 14.9033H10.75C10.3458 14.9033 10 15.2157 10 15.623V19.252C10 19.6592 9.67237 19.9894 9.26822 19.9894H5.41395C5.0098 19.9894 4.68217 19.6592 4.68217 19.252V12.6152L3.73325 12.6152C3.05386 12.6152 2.74118 11.7634 3.25701 11.3179L11.5238 4.17753Z" fill="#F8E326"/>
</svg>
