<svg width="24" height="24" viewBox="0 0 24 24" fill="none" xmlns="http://www.w3.org/2000/svg">
<path fill-rule="evenodd" clip-rule="evenodd" d="M6.51164 16.4465C5.57691 15.9124 5.00005 14.9183 5.00005 13.8418V10.7646L2.60953 9.46063C1.91466 9.08162 1.91466 8.08386 2.60953 7.70484L10.5635 3.36631C11.4589 2.8779 12.5412 2.8779 13.4366 3.36631L21.2163 7.6098C21.5104 7.67287 22.0001 7.88295 22.0001 8.58274V13.0841C22.0001 13.3602 21.7762 13.5827 21.5001 13.5827C21.2239 13.5827 21.0001 13.3589 21.0001 13.0827V9.67365L19.0001 10.7646V13.8418C19.0001 14.9183 18.4232 15.9124 17.4885 16.4465L12.0001 19.5827L6.51164 16.4465ZM17.0001 14.5827L12.0002 17.0827L7.00005 14.5827L7.00011 11.8555L10.5635 13.7992C11.4589 14.2876 12.5412 14.2876 13.4366 13.7992L17.0001 11.8554L17.0001 14.5827Z" fill="#3D69DA"/>
</svg>
