<svg width="44" height="44" viewBox="0 0 44 44" fill="none" xmlns="http://www.w3.org/2000/svg">
<path fill-rule="evenodd" clip-rule="evenodd" d="M24.1399 13.3C25.0247 13.5908 25.8381 14.0864 26.509 14.7574C27.6342 15.8826 28.2664 17.4087 28.2664 19H26.2663C26.2663 16.7909 24.4754 15 22.2663 15C20.0572 15 18.2663 16.7909 18.2663 19L16.2664 19C16.2664 17.4087 16.8985 15.8826 18.0237 14.7574C18.6946 14.0864 19.5081 13.5908 20.3929 13.3C20.4011 13.2781 20.4096 13.2563 20.4186 13.2346C20.5191 12.992 20.6664 12.7715 20.8521 12.5858C21.0379 12.4001 21.2583 12.2528 21.501 12.1522C21.7436 12.0517 22.0037 12 22.2664 12C22.529 12 22.7891 12.0517 23.0317 12.1522C23.2744 12.2528 23.4949 12.4001 23.6806 12.5858C23.8663 12.7715 24.0136 12.992 24.1141 13.2346C24.1231 13.2563 24.1317 13.2781 24.1399 13.3ZM16.2664 19H18.2664V22H18.2663L16.2663 26H28.2663L26.2663 22H26.2664V19H28.2664V22L30.1934 24.8906C31.0795 26.2197 30.1267 28 28.5293 28H16.0034C14.406 28 13.4532 26.2197 14.3393 24.8906L16.2663 22H16.2664V19ZM25.2664 29C25.2664 29.394 25.1888 29.7841 25.038 30.1481C24.8872 30.512 24.6663 30.8427 24.3877 31.1213C24.1091 31.3999 23.7784 31.6209 23.4144 31.7716C23.0504 31.9224 22.6603 32 22.2664 32C21.8724 32 21.4823 31.9224 21.1183 31.7716C20.7543 31.6209 20.4236 31.3999 20.145 31.1213C19.8665 30.8427 19.6455 30.512 19.4947 30.1481C19.344 29.7841 19.2664 29.394 19.2664 29H22.2664H25.2664Z" fill="#1C1D21"/>
</svg>
