<svg width="24" height="24" viewBox="0 0 24 24" fill="none" xmlns="http://www.w3.org/2000/svg">
<path d="M12.6985 21.8H12H6.7607C6.57757 21.8018 6.40121 21.7308 6.27028 21.6028C6.13935 21.4748 6.06452 21.3 6.0622 21.1169V9.755L4.806 11.2158L1 8.8607C1.21486 8.3248 1.45906 7.80115 1.7315 7.2921C2.26512 6.25288 2.94814 5.29747 3.7588 4.4563C4.64592 3.65869 5.67001 3.02814 6.7816 2.5951C7.34345 2.3597 7.91996 2.16091 8.5075 2H8.5779C8.74997 2.77796 9.18351 3.47342 9.80624 3.97045C10.429 4.46747 11.2033 4.73601 12 4.7313C12.7969 4.73627 13.5715 4.46784 14.1944 3.9708C14.8174 3.47375 15.2511 2.77814 15.4232 2L15.4936 2C16.0811 2.16097 16.6576 2.35975 17.2195 2.5951C18.3312 3.02847 19.3553 3.6594 20.2423 4.4574C21.0531 5.29845 21.7361 6.25389 22.2696 7.2932C22.5416 7.80044 22.7854 8.32226 23 8.8563L19.1929 11.2158L17.94 9.755V21.118C17.9377 21.3011 17.8629 21.4759 17.7319 21.6039C17.601 21.7319 17.4246 21.8029 17.2415 21.8011L12.6985 21.8Z" fill="#249CF3"/>
</svg>
