<svg width="134" height="26" viewBox="0 0 134 26" fill="none" xmlns="http://www.w3.org/2000/svg">
<path d="M9.14781 4.02539C8.04104 4.02539 7.11689 4.39062 6.37535 5.12109C5.64488 5.85156 5.23538 6.80339 5.14684 7.97656H13.0326C12.9883 6.78125 12.612 5.82389 11.9037 5.10449C11.1953 4.38509 10.2767 4.02539 9.14781 4.02539ZM17.5648 13.4219C17.2992 15.1927 16.4082 16.6149 14.892 17.6885C13.3757 18.7731 11.5052 19.3154 9.28062 19.3154C6.50263 19.3154 4.31122 18.4798 2.70641 16.8086C1.11266 15.1374 0.315781 12.8464 0.315781 9.93555C0.315781 7.02474 1.10712 4.71159 2.6898 2.99609C4.28355 1.26953 6.41962 0.40625 9.09801 0.40625C11.7321 0.40625 13.8239 1.22526 15.3734 2.86328C16.9339 4.5013 17.7142 6.70931 17.7142 9.4873V10.9814H5.09703V11.2803C5.09703 12.5973 5.48993 13.6654 6.27574 14.4844C7.06155 15.2923 8.09085 15.6963 9.36363 15.6963C10.2823 15.6963 11.0736 15.4915 11.7377 15.082C12.4128 14.6836 12.8666 14.1302 13.099 13.4219H17.5648ZM27.6799 15.6797C28.8199 15.6797 29.7717 15.3643 30.5354 14.7334C31.3212 14.0915 31.7141 13.278 31.7141 12.293V10.9482L27.8791 11.2139C25.8095 11.3467 24.7746 12.1048 24.7746 13.4883C24.7746 14.1634 25.0403 14.6947 25.5715 15.082C26.0917 15.4805 26.7945 15.6797 27.6799 15.6797ZM26.1028 19.2158C24.3209 19.2158 22.8544 18.7122 21.7034 17.7051C20.5302 16.6758 19.9436 15.3532 19.9436 13.7373C19.9436 12.0882 20.5634 10.7933 21.803 9.85254C23.0204 8.93392 24.8023 8.40267 27.1487 8.25879L31.7141 7.97656V6.76465C31.7141 5.8903 31.4319 5.21517 30.8674 4.73926C30.303 4.27441 29.5172 4.04199 28.51 4.04199C27.6467 4.04199 26.9218 4.25228 26.3352 4.67285C25.7597 5.08236 25.411 5.62467 25.2893 6.2998H20.8567C20.9231 4.55111 21.6757 3.13444 23.1145 2.0498C24.5644 0.954102 26.4293 0.40625 28.7092 0.40625C31.0556 0.40625 32.9371 0.959635 34.3538 2.06641C35.7704 3.17318 36.4788 4.63965 36.4788 6.46582V19H31.7971V16.1777H31.6975C31.2105 17.1185 30.4468 17.8656 29.4065 18.4189C28.3993 18.9502 27.2981 19.2158 26.1028 19.2158ZM39.8038 6.10059C39.8038 4.38509 40.5011 3.00716 41.8956 1.9668C43.2902 0.926432 45.144 0.40625 47.4571 0.40625C49.715 0.40625 51.5356 0.9375 52.9191 2C54.3025 3.05143 55.0109 4.4515 55.0441 6.2002H50.5616C50.5063 5.48079 50.1964 4.90527 49.632 4.47363C49.0675 4.05306 48.3204 3.84277 47.3907 3.84277C46.5164 3.84277 45.8136 4.01986 45.2823 4.37402C44.7511 4.73926 44.4855 5.21517 44.4855 5.80176C44.4855 6.69824 45.2989 7.33464 46.9259 7.71094L50.3624 8.45801C52.1997 8.87858 53.5112 9.4707 54.297 10.2344C55.0939 10.998 55.4923 12.0605 55.4923 13.4219C55.4923 15.1927 54.7508 16.6204 53.2677 17.7051C51.7846 18.7786 49.8422 19.3154 47.4405 19.3154C45.061 19.3154 43.1407 18.7786 41.6798 17.7051C40.2521 16.6647 39.4773 15.2536 39.3556 13.4717H44.087C44.3305 15.0765 45.4926 15.8789 47.5734 15.8789C48.5363 15.8789 49.2944 15.7018 49.8478 15.3477C50.4012 15.0046 50.6779 14.5342 50.6779 13.9365C50.6779 13.4606 50.5063 13.0843 50.1632 12.8076C49.809 12.5309 49.2169 12.293 48.3868 12.0938L45.0167 11.3301C41.5415 10.5443 39.8038 8.80111 39.8038 6.10059ZM60.627 25.6738C59.6419 25.6738 59.0277 25.6517 58.7842 25.6074V21.8555C58.9502 21.8887 59.3154 21.9053 59.8799 21.9053C61.6729 21.9053 62.752 21.208 63.1172 19.8135L63.2832 19.1162L56.875 0.72168H62.1875L66.1387 15.0654H66.2383L70.2061 0.72168H75.3193L68.9941 19.3652C68.2194 21.6895 67.2012 23.3219 65.9395 24.2627C64.6888 25.2035 62.918 25.6738 60.627 25.6738Z" fill="#EA4C89"/>
<path d="M77.5155 0.72168H82.1972V4.04199H82.2968C82.6841 2.93522 83.3482 2.06087 84.2889 1.41895C85.2186 0.777018 86.2922 0.456055 87.5097 0.456055C88.8267 0.456055 89.9279 0.777018 90.8134 1.41895C91.6988 2.07194 92.2964 2.99609 92.6063 4.19141H92.7059C93.1265 3.04036 93.8459 2.13281 94.8641 1.46875C95.8824 0.79362 97.0555 0.456055 98.3837 0.456055C100.177 0.456055 101.627 1.01497 102.733 2.13281C103.829 3.26172 104.377 4.74479 104.377 6.58203V19H99.5292V7.79395C99.5292 5.5804 98.511 4.47363 96.4745 4.47363C95.5227 4.47363 94.7535 4.7946 94.1669 5.43652C93.5803 6.06738 93.287 6.90299 93.287 7.94336V19H88.6054V7.61133C88.6054 6.63737 88.3397 5.86816 87.8085 5.30371C87.2772 4.75033 86.5412 4.47363 85.6005 4.47363C84.6486 4.47363 83.8684 4.80566 83.2597 5.46973C82.662 6.12272 82.3632 6.9694 82.3632 8.00977V19H77.5155V0.72168ZM116.302 19.3154C113.524 19.3154 111.327 18.4743 109.711 16.792C108.095 15.1097 107.287 12.7965 107.287 9.85254C107.287 6.94173 108.1 4.63411 109.727 2.92969C111.354 1.2474 113.546 0.40625 116.302 0.40625C119.068 0.40625 121.26 1.2474 122.876 2.92969C124.503 4.62305 125.316 6.93066 125.316 9.85254C125.316 12.8076 124.508 15.1263 122.892 16.8086C121.288 18.4798 119.091 19.3154 116.302 19.3154ZM116.302 15.5801C117.585 15.5801 118.587 15.082 119.306 14.0859C120.026 13.0788 120.386 11.6676 120.386 9.85254C120.386 8.05957 120.02 6.65397 119.29 5.63574C118.57 4.62858 117.574 4.125 116.302 4.125C115.018 4.125 114.016 4.62858 113.297 5.63574C112.566 6.65397 112.201 8.05957 112.201 9.85254C112.201 11.6676 112.566 13.0788 113.297 14.0859C114.016 15.082 115.018 15.5801 116.302 15.5801ZM130.882 19.1992C130.141 19.1992 129.51 18.9391 128.99 18.4189C128.47 17.8988 128.21 17.2679 128.21 16.5264C128.21 15.7738 128.47 15.1429 128.99 14.6338C129.51 14.1136 130.141 13.8535 130.882 13.8535C131.635 13.8535 132.266 14.1136 132.775 14.6338C133.295 15.1429 133.555 15.7738 133.555 16.5264C133.555 17.2679 133.295 17.8988 132.775 18.4189C132.255 18.9391 131.624 19.1992 130.882 19.1992Z" fill="#1C1D21"/>
</svg>
