<svg width="24" height="24" viewBox="0 0 24 24" fill="none" xmlns="http://www.w3.org/2000/svg">
<path fill-rule="evenodd" clip-rule="evenodd" d="M19.5864 19.9998H17.5173C17.3365 20.0018 17.1624 19.9326 17.033 19.8076C16.9037 19.6826 16.8297 19.5119 16.8273 19.333V18.5032C17.7546 18.4462 18.6726 18.2874 19.5645 18.0298C19.8184 17.9524 20.0584 17.8357 20.2755 17.6842V19.333C20.2731 19.5117 20.1992 19.6823 20.07 19.8073C19.9409 19.9323 19.767 20.0015 19.5864 19.9998ZM6.48273 19.9998H4.41364C4.23287 20.0018 4.05872 19.9326 3.92937 19.8076C3.80002 19.6826 3.72603 19.5119 3.72364 19.333V17.6842C3.94089 17.8362 4.18115 17.9532 4.43545 18.0307C5.32703 18.2884 6.24479 18.4471 7.17182 18.5041V19.3339C7.16918 19.5125 7.09522 19.6828 6.96609 19.8076C6.83696 19.9324 6.66318 20.0015 6.48273 19.9998Z" fill="#2E433F"/>
<path fill-rule="evenodd" clip-rule="evenodd" d="M12 17.9992H11.7318C8.14454 17.9992 5.69 17.6995 4.43636 17.1082C3.39455 16.6168 3.39455 16.0444 3.39455 15.6682C3.39455 15.6529 3.33818 14.0635 3.45273 12.3139C3.05216 12.2527 2.68585 12.0546 2.41727 11.7541C2.1489 11.4542 2.0005 11.0675 2 10.6669C2.0024 10.4879 2.07638 10.3172 2.20573 10.1922C2.33508 10.0672 2.50924 9.99808 2.69 10H3.72727C3.96954 8.70691 4.43974 7.4661 5.11636 6.33432C5.26729 6.017 5.45002 5.71549 5.66182 5.43433C6.0247 4.90448 6.56184 4.51551 7.18182 4.33363C7.21 4.33363 7.88455 4.23013 8.89455 4.14013C10.5 3.99988 14.2842 4.0559 15.1045 4.14013C16.0409 4.22383 16.6927 4.31563 16.8136 4.33273C17.4336 4.51563 17.9704 4.90554 18.3327 5.43613C18.5449 5.71704 18.7277 6.01859 18.8782 6.33612C19.5564 7.46704 20.0284 8.70722 20.2727 10H21.3127C21.493 9.9988 21.6665 10.0682 21.7952 10.1932C21.924 10.3181 21.9976 10.4884 22 10.6669C21.9995 11.0675 21.8511 11.4542 21.5827 11.7541C21.3143 12.0542 20.9483 12.2519 20.5482 12.313C20.6636 14.0635 20.6073 15.652 20.6064 15.6673C20.6064 16.0462 20.6064 16.6186 19.5645 17.1073C18.3109 17.7004 15.8564 18.0001 12.2727 18.0001L12 17.9992ZM17.5164 10L12.4348 9.9998L6.48273 10C6.30197 10.0019 6.12781 9.93279 5.99846 9.80778C5.86911 9.68276 5.79512 9.51205 5.79273 9.33311C5.8218 8.35092 6.17674 7.40555 6.80273 6.64302C7.08253 6.25602 7.44728 5.93682 7.86957 5.7094C8.29185 5.48197 8.76071 5.35223 9.24091 5.32993H12H14.7591C15.2391 5.35237 15.7078 5.48217 16.1299 5.70959C16.552 5.93701 16.9166 6.25614 17.1964 6.64302C17.8223 7.40555 18.1773 8.35092 18.2064 9.33311C18.204 9.51205 18.13 9.68276 18.0006 9.80778C17.8713 9.93279 17.6971 10.0019 17.5164 10ZM17.4713 12.9066C17.6886 12.7563 17.9459 12.6729 18.2109 12.6667H18.2073C18.3866 12.6642 18.5646 12.6967 18.7312 12.7624C18.8978 12.8282 19.0497 12.9258 19.1781 13.0496C19.3065 13.1735 19.409 13.3213 19.4797 13.4844C19.5504 13.6476 19.5879 13.823 19.59 14.0005C19.5899 14.2629 19.5116 14.5195 19.365 14.7381C19.2183 14.9567 19.0097 15.1276 18.7654 15.2294C18.5211 15.3313 18.2518 15.3594 17.9914 15.3105C17.7309 15.2615 17.4909 15.1376 17.3012 14.9542C17.1116 14.7708 16.9809 14.5361 16.9253 14.2795C16.8698 14.0228 16.892 13.7557 16.9891 13.5115C17.0862 13.2673 17.2539 13.0569 17.4713 12.9066ZM5.05651 12.905C5.27435 12.7551 5.53204 12.6722 5.79727 12.6667H5.79273C6.15424 12.6624 6.50269 12.8003 6.76147 13.0503C7.02025 13.3002 7.16817 13.6417 7.17273 13.9996C7.17285 14.2622 7.09464 14.519 6.94792 14.7379C6.8012 14.9567 6.59249 15.1277 6.34796 15.2296C6.10343 15.3314 5.83397 15.3596 5.57337 15.3104C5.31276 15.2613 5.07261 15.1371 4.88302 14.9533C4.69344 14.7696 4.56286 14.5346 4.50767 14.2777C4.45247 14.0208 4.47511 13.7535 4.57274 13.5093C4.67038 13.2651 4.83867 13.0549 5.05651 12.905Z" fill="#2E433F"/>
</svg>
