<svg width="86" height="24" viewBox="0 0 86 24" fill="none" xmlns="http://www.w3.org/2000/svg">
<path d="M3.75024 8.19629H3.62573L0.974365 10.0713V8.39404L3.75757 6.43115H5.39087V17H3.75024V8.19629ZM16.6452 17V13.499H16.5207C15.9738 14.0361 15.2756 14.3047 14.4259 14.3047C13.5715 14.3047 12.8952 14.041 12.3971 13.5137C11.9089 12.9912 11.6647 12.2881 11.6647 11.4043V9.02393H13.2394V11.2651C13.2394 11.7632 13.3713 12.1538 13.6349 12.437C13.8986 12.7251 14.2624 12.8691 14.7262 12.8691C15.6003 12.8691 16.2399 12.5664 16.6452 11.9609V9.02393H18.2199V17H16.6452ZM20.2216 17V9.02393H21.7816V14.5098H21.9061L25.6488 9.02393H27.2089V17H25.6488V11.4849H25.5243L21.7816 17H20.2216ZM34.4547 11.6313C34.357 11.2261 34.1519 10.9038 33.8394 10.6646C33.5025 10.4058 33.0802 10.2764 32.5723 10.2764C31.9132 10.2764 31.3956 10.5156 31.0196 10.9941C30.6388 11.4727 30.4483 12.1367 30.4483 12.9863C30.4483 13.8457 30.6388 14.522 31.0196 15.0151C31.3956 15.5034 31.9132 15.7476 32.5723 15.7476C33.6173 15.7476 34.2447 15.3105 34.4547 14.4365H35.9854C35.8829 15.2568 35.5362 15.9111 34.9454 16.3994C34.335 16.9023 33.5465 17.1538 32.5797 17.1538C31.4176 17.1538 30.5045 16.7852 29.8404 16.0479C29.1715 15.3057 28.837 14.2852 28.837 12.9863C28.837 11.707 29.169 10.7012 29.8331 9.96875C30.4972 9.23633 31.4102 8.87012 32.5723 8.87012C33.544 8.87012 34.3375 9.13135 34.9527 9.65381C35.5338 10.147 35.878 10.8062 35.9854 11.6313H34.4547ZM39.679 13.3525C39.596 14.583 39.3836 15.4888 39.0418 16.0698C38.6463 16.7437 38.031 17.0806 37.1961 17.0806C36.9861 17.0806 36.8055 17.0513 36.6541 16.9927V15.5205C36.7859 15.5596 36.9275 15.5791 37.0789 15.5791C37.4451 15.5791 37.721 15.3667 37.9065 14.9419C38.0677 14.5757 38.1751 14.019 38.2288 13.272L38.5071 9.02393H44.0003V17H42.4256V10.3496H39.8987L39.679 13.3525ZM49.3931 15.7549C50.0718 15.7549 50.5991 15.5132 50.9751 15.0298C51.3462 14.5513 51.5317 13.8774 51.5317 13.0083C51.5317 12.144 51.3462 11.4702 50.9751 10.9868C50.5991 10.5083 50.0718 10.269 49.3931 10.269C48.7095 10.269 48.1821 10.5083 47.811 10.9868C47.4399 11.4653 47.2544 12.1392 47.2544 13.0083C47.2544 13.8823 47.4399 14.5586 47.811 15.0371C48.1821 15.5156 48.7095 15.7549 49.3931 15.7549ZM49.3931 17.1538C48.2212 17.1538 47.3008 16.7852 46.6318 16.0479C45.9629 15.3105 45.6284 14.2974 45.6284 13.0083C45.6284 11.7241 45.9653 10.7134 46.6392 9.97607C47.3081 9.23877 48.2261 8.87012 49.3931 8.87012C50.5552 8.87012 51.4707 9.23877 52.1396 9.97607C52.8135 10.7134 53.1504 11.7241 53.1504 13.0083C53.1504 14.2974 52.8159 15.3105 52.147 16.0479C51.478 16.7852 50.5601 17.1538 49.3931 17.1538Z" fill="#959AA7"/>
<path d="M72.5857 16.7071L76.8283 12.4645C77.2189 12.0739 77.2189 11.4408 76.8283 11.0503L72.5858 6.8077C72.1953 6.41717 71.5621 6.41717 71.1716 6.8077C70.7811 7.19822 70.7811 7.83139 71.1716 8.22191L74.707 11.7574L71.1715 15.2929C70.781 15.6834 70.781 16.3166 71.1715 16.7071C71.562 17.0976 72.1952 17.0976 72.5857 16.7071Z" fill="#959AA7"/>
</svg>
