<svg width="24" height="24" viewBox="0 0 24 24" fill="none" xmlns="http://www.w3.org/2000/svg">
<path d="M16.3751 23C16.2782 23.0021 16.1818 22.985 16.0915 22.9496C16.0011 22.9143 15.9187 22.8614 15.8489 22.7941C15.7791 22.7267 15.7234 22.6462 15.6848 22.5572C15.6463 22.4682 15.6258 22.3725 15.6244 22.2755V20.8275H19.375V22.2755C19.3736 22.3724 19.3531 22.468 19.3147 22.557C19.2762 22.6459 19.2205 22.7263 19.1508 22.7937C19.0812 22.861 18.9989 22.9139 18.9087 22.9493C18.8185 22.9847 18.7222 23.0019 18.6253 23H16.3751ZM4.3747 23C4.27783 23.0019 4.18152 22.9847 4.09133 22.9493C4.00114 22.9139 3.91884 22.861 3.84916 22.7937C3.77949 22.7263 3.72381 22.6459 3.68534 22.557C3.64687 22.468 3.62636 22.3724 3.625 22.2755V20.8275H7.37455V22.2755C7.37319 22.3724 7.35268 22.468 7.31421 22.557C7.27574 22.6459 7.22006 22.7263 7.15039 22.7937C7.08071 22.861 6.99841 22.9139 6.90822 22.9493C6.81803 22.9847 6.72172 23.0019 6.62485 23H4.3747ZM3.99985 20.1041C3.60919 20.1103 3.23201 19.9614 2.95096 19.6899C2.66991 19.4185 2.5079 19.0468 2.50045 18.6561L2.6926 11.4111H1.7476C1.55284 11.4145 1.3647 11.3404 1.22452 11.2052C1.08434 11.0699 1.00359 10.8846 1 10.6898V7.79285C1.00136 7.69597 1.02187 7.60031 1.06034 7.51138C1.09881 7.42245 1.15449 7.342 1.22416 7.27467C1.29384 7.20734 1.37614 7.15445 1.46633 7.11904C1.55652 7.08363 1.65283 7.0664 1.7497 7.06835H2.80705L2.87425 4.53365C2.87425 3.75245 4.3138 3.11195 4.3747 3.0857C6.69357 2.42045 9.08823 2.05557 11.5 2C13.9118 2.05553 16.3064 2.42041 18.6253 3.0857C18.64 3.092 20.1247 3.73565 20.1247 4.53365L20.1919 7.06835H21.2503C21.3472 7.0664 21.4435 7.08363 21.5337 7.11904C21.6239 7.15445 21.7062 7.20734 21.7758 7.27467C21.8455 7.342 21.9012 7.42245 21.9397 7.51138C21.9781 7.60031 21.9986 7.69597 22 7.79285V10.6898C21.9986 10.7867 21.9781 10.8823 21.9397 10.9713C21.9012 11.0602 21.8455 11.1406 21.7758 11.208C21.7062 11.2753 21.6239 11.3282 21.5337 11.3636C21.4435 11.399 21.3472 11.4162 21.2503 11.4143H20.3053L20.4974 18.6593C20.49 19.0499 20.328 19.4217 20.0469 19.6931C19.7659 19.9645 19.3887 20.1134 18.9981 20.1073L3.99985 20.1041ZM16.3751 16.302C16.3659 16.5637 16.4351 16.8221 16.5738 17.0441C16.7125 17.2661 16.9143 17.4416 17.1534 17.5482C17.3926 17.6547 17.658 17.6873 17.9158 17.6419C18.1737 17.5964 18.412 17.475 18.6003 17.2932C18.7886 17.1113 18.9183 16.8774 18.9727 16.6213C19.0272 16.3653 19.0038 16.0988 18.9058 15.8561C18.8077 15.6134 18.6393 15.4055 18.4223 15.2592C18.2052 15.1128 17.9494 15.0347 17.6876 15.0347C17.3457 15.0294 17.0156 15.1597 16.7696 15.3973C16.5236 15.6348 16.3818 15.9601 16.3751 16.302ZM3.99985 16.302C3.99064 16.5637 4.05981 16.8221 4.19848 17.0441C4.33715 17.2661 4.539 17.4416 4.77813 17.5482C5.01725 17.6547 5.28275 17.6873 5.54055 17.6419C5.79835 17.5964 6.0367 17.475 6.22501 17.2932C6.41332 17.1113 6.54301 16.8774 6.59744 16.6213C6.65186 16.3653 6.62853 16.0988 6.53046 15.8561C6.43238 15.6134 6.26402 15.4055 6.04698 15.2592C5.82994 15.1128 5.57412 15.0347 5.31235 15.0347C4.97043 15.0294 4.64032 15.1597 4.39432 15.3973C4.14832 15.6348 4.00648 15.9601 3.99985 16.302ZM4.3747 7.0694L3.99985 12.5C4.00121 12.597 4.02175 12.6927 4.06029 12.7817C4.09883 12.8707 4.1546 12.9512 4.22438 13.0186C4.29417 13.0859 4.3766 13.1388 4.46691 13.1741C4.55722 13.2095 4.65364 13.2266 4.7506 13.2245H18.2505C18.3473 13.2264 18.4436 13.2092 18.5338 13.1738C18.624 13.1384 18.7063 13.0855 18.776 13.0182C18.8457 12.9508 18.9013 12.8704 18.9398 12.7815C18.9783 12.6925 18.9988 12.5969 19.0001 12.5L18.6253 7.0694C18.6239 6.97252 18.6034 6.87686 18.565 6.78793C18.5265 6.699 18.4708 6.61855 18.4011 6.55122C18.3315 6.48389 18.2492 6.431 18.159 6.39559C18.0688 6.36018 17.9725 6.34295 17.8756 6.3449H5.12545C5.02849 6.34281 4.93207 6.35993 4.84176 6.39528C4.75145 6.43062 4.66902 6.4835 4.59923 6.55084C4.52945 6.61819 4.47368 6.69868 4.43514 6.78768C4.3966 6.87668 4.37606 6.97243 4.3747 7.0694ZM7.75045 4.17245C7.75181 4.26933 7.77232 4.36499 7.81079 4.45392C7.84926 4.54285 7.90494 4.6233 7.97461 4.69063C8.04429 4.75796 8.12659 4.81085 8.21678 4.84626C8.30697 4.88167 8.40328 4.8989 8.50015 4.89695H14.4998C14.5967 4.8989 14.693 4.88167 14.7832 4.84626C14.8734 4.81085 14.9557 4.75796 15.0254 4.69063C15.0951 4.6233 15.1507 4.54285 15.1892 4.45392C15.2277 4.36499 15.2482 4.26933 15.2495 4.17245C15.2482 4.07557 15.2277 3.97991 15.1892 3.89098C15.1507 3.80205 15.0951 3.7216 15.0254 3.65427C14.9557 3.58694 14.8734 3.53405 14.7832 3.49864C14.693 3.46323 14.5967 3.446 14.4998 3.44795H8.50015C8.40328 3.446 8.30697 3.46323 8.21678 3.49864C8.12659 3.53405 8.04429 3.58694 7.97461 3.65427C7.90494 3.7216 7.84926 3.80205 7.81079 3.89098C7.77232 3.97991 7.75181 4.07557 7.75045 4.17245Z" fill="#C2255C"/>
</svg>
