<svg width="24" height="24" viewBox="0 0 24 24" fill="none" xmlns="http://www.w3.org/2000/svg">
<path fill-rule="evenodd" clip-rule="evenodd" d="M13 5C13 5.55228 12.5523 6 12 6C11.4477 6 11 5.55228 11 5C11 4.44772 11.4477 4 12 4C12.5523 4 13 4.44772 13 5ZM18.364 8.63604C20.0518 10.3239 21 12.6131 21 15H12L3 15C3 12.6131 3.94821 10.3239 5.63604 8.63604C7.32387 6.94821 9.61305 6 12 6C14.3869 6 16.6761 6.94821 18.364 8.63604ZM11.5004 8.01785C10.4457 8.09331 9.41948 8.40696 8.5 8.93782C7.58051 9.46869 6.79577 10.2006 6.20307 11.0763C6.04829 11.305 6.13168 11.6119 6.37082 11.75C6.60997 11.8881 6.91407 11.8047 7.07157 11.5779C7.27391 11.2865 7.50304 11.0117 7.75736 10.7574C8.76425 9.75047 10.0922 9.1384 11.5005 9.02081C11.7757 8.99783 12 8.77614 12 8.5C12 8.22386 11.7758 7.99814 11.5004 8.01785ZM2 16C1.44772 16 1 16.4477 1 17C1 17.5523 1.44772 18 2 18H22C22.5523 18 23 17.5523 23 17C23 16.4477 22.5523 16 22 16H2Z" fill="#7E72C6"/>
</svg>
