<svg width="24" height="24" viewBox="0 0 24 24" fill="none" xmlns="http://www.w3.org/2000/svg">
<path fill-rule="evenodd" clip-rule="evenodd" d="M8 5C8 4.44772 8.44772 4 9 4H15C15.5523 4 16 4.44772 16 5V6V7H14V6H10V7H8V6V5ZM5 7C3.89543 7 3 7.89543 3 9V17C3 18.1046 3.89543 19 5 19H19C20.1046 19 21 18.1046 21 17V9C21 7.89543 20.1046 7 19 7H5ZM12 10C11.4477 10 11 10.4477 11 11V12H10C9.44772 12 9 12.4477 9 13C9 13.5523 9.44772 14 10 14H11V15C11 15.5523 11.4477 16 12 16C12.5523 16 13 15.5523 13 15V14H14C14.5523 14 15 13.5523 15 13C15 12.4477 14.5523 12 14 12H13V11C13 10.4477 12.5523 10 12 10Z" fill="#17BF83"/>
</svg>
