<svg width="24" height="24" viewBox="0 0 24 24" fill="none" xmlns="http://www.w3.org/2000/svg">
<path d="M16.6066 10.1212C16.9971 9.73065 16.9971 9.09748 16.6066 8.70696C16.2161 8.31643 15.5829 8.31643 15.1924 8.70696L10.9498 12.9496L8.12141 10.1212C7.73089 9.73065 7.09772 9.73065 6.7072 10.1212C6.31668 10.5117 6.31668 11.1449 6.7072 11.5354L10.235 15.0632C10.2376 15.0658 10.2401 15.0684 10.2427 15.0709C10.4356 15.2639 10.6879 15.3615 10.9408 15.3638C11.1997 15.3661 11.4594 15.2685 11.6569 15.0709C11.6595 15.0683 11.6621 15.0658 11.6646 15.0632L16.6066 10.1212Z" fill="#EA4C89"/>
</svg>
