<svg width="40" height="39" viewBox="0 0 40 39" fill="none" xmlns="http://www.w3.org/2000/svg">
<g filter="url(#filter0_d_102_1092)">
<path d="M19.365 6.24426C19.7304 5.91858 20.2696 5.91858 20.635 6.24426L31.6573 16.0688C32.3451 16.6818 31.9282 17.8538 31.0223 17.8538L29.7571 17.8538V26.9854C29.7571 27.5457 29.3202 28 28.7814 28L22.9757 28.0146C22.4368 28.0146 22 27.5604 22 27V21.9922C22 21.4318 21.5389 21.002 21 21.002H19C18.4611 21.002 18 21.4318 18 21.9922V26.9854C18 27.5457 17.5632 28 17.0243 28H11.2186C10.6797 28 10.2429 27.5457 10.2429 26.9854V17.8538L8.97766 17.8538C8.07181 17.8538 7.6549 16.6818 8.34268 16.0688L19.365 6.24426Z" fill="#EA4C89"/>
</g>
<defs>
<filter id="filter0_d_102_1092" x="-2" y="-3" width="44" height="44" filterUnits="userSpaceOnUse" color-interpolation-filters="sRGB">
<feFlood flood-opacity="0" result="BackgroundImageFix"/>
<feColorMatrix in="SourceAlpha" type="matrix" values="0 0 0 0 0 0 0 0 0 0 0 0 0 0 0 0 0 0 127 0" result="hardAlpha"/>
<feOffset dy="2"/>
<feGaussianBlur stdDeviation="4"/>
<feComposite in2="hardAlpha" operator="out"/>
<feColorMatrix type="matrix" values="0 0 0 0 0.917647 0 0 0 0 0.298039 0 0 0 0 0.537255 0 0 0 0.3 0"/>
<feBlend mode="normal" in2="BackgroundImageFix" result="effect1_dropShadow_102_1092"/>
<feBlend mode="normal" in="SourceGraphic" in2="effect1_dropShadow_102_1092" result="shape"/>
</filter>
</defs>
</svg>
