<svg width="96" height="24" viewBox="0 0 96 24" fill="none" xmlns="http://www.w3.org/2000/svg">
<path d="M4.41703 8.19629H4.29252L1.64116 10.0713V8.39404L4.42436 6.43115H6.05766V17H4.41703V8.19629ZM12.4612 17.2563C11.2258 17.2563 10.2664 16.7705 9.58276 15.7988C8.89429 14.8271 8.55005 13.4624 8.55005 11.7046C8.55005 9.96143 8.89429 8.604 9.58276 7.63232C10.2712 6.66064 11.2307 6.1748 12.4612 6.1748C13.6819 6.1748 14.6365 6.66064 15.325 7.63232C16.0134 8.60889 16.3577 9.97119 16.3577 11.7192C16.3577 13.4722 16.0159 14.8345 15.3323 15.8062C14.6487 16.7729 13.6917 17.2563 12.4612 17.2563ZM12.4612 15.8208C13.1838 15.8208 13.738 15.4692 14.1238 14.7661C14.5095 14.0581 14.7024 13.0376 14.7024 11.7046C14.7024 10.3862 14.5071 9.37305 14.1165 8.66504C13.7258 7.96191 13.1741 7.61035 12.4612 7.61035C11.7483 7.61035 11.1941 7.96191 10.7986 8.66504C10.4031 9.37793 10.2053 10.3911 10.2053 11.7046C10.2053 13.0327 10.4031 14.0532 10.7986 14.7661C11.1843 15.4692 11.7385 15.8208 12.4612 15.8208ZM26.6452 17V13.499H26.5207C25.9738 14.0361 25.2756 14.3047 24.4259 14.3047C23.5715 14.3047 22.8952 14.041 22.3971 13.5137C21.9089 12.9912 21.6647 12.2881 21.6647 11.4043V9.02393H23.2394V11.2651C23.2394 11.7632 23.3713 12.1538 23.6349 12.437C23.8986 12.7251 24.2624 12.8691 24.7262 12.8691C25.6003 12.8691 26.2399 12.5664 26.6452 11.9609V9.02393H28.2199V17H26.6452ZM30.2216 17V9.02393H31.7816V14.5098H31.9061L35.6488 9.02393H37.2089V17H35.6488V11.4849H35.5243L31.7816 17H30.2216ZM44.4547 11.6313C44.357 11.2261 44.1519 10.9038 43.8394 10.6646C43.5025 10.4058 43.0802 10.2764 42.5723 10.2764C41.9132 10.2764 41.3956 10.5156 41.0196 10.9941C40.6388 11.4727 40.4483 12.1367 40.4483 12.9863C40.4483 13.8457 40.6388 14.522 41.0196 15.0151C41.3956 15.5034 41.9132 15.7476 42.5723 15.7476C43.6173 15.7476 44.2447 15.3105 44.4547 14.4365H45.9854C45.8829 15.2568 45.5362 15.9111 44.9454 16.3994C44.335 16.9023 43.5465 17.1538 42.5797 17.1538C41.4176 17.1538 40.5045 16.7852 39.8404 16.0479C39.1715 15.3057 38.837 14.2852 38.837 12.9863C38.837 11.707 39.169 10.7012 39.8331 9.96875C40.4972 9.23633 41.4102 8.87012 42.5723 8.87012C43.544 8.87012 44.3375 9.13135 44.9527 9.65381C45.5338 10.147 45.878 10.8062 45.9854 11.6313H44.4547ZM49.679 13.3525C49.596 14.583 49.3836 15.4888 49.0418 16.0698C48.6463 16.7437 48.031 17.0806 47.1961 17.0806C46.9861 17.0806 46.8055 17.0513 46.6541 16.9927V15.5205C46.7859 15.5596 46.9275 15.5791 47.0789 15.5791C47.4451 15.5791 47.721 15.3667 47.9065 14.9419C48.0677 14.5757 48.1751 14.019 48.2288 13.272L48.5071 9.02393H54.0003V17H52.4256V10.3496H49.8987L49.679 13.3525ZM59.3931 15.7549C60.0718 15.7549 60.5991 15.5132 60.9751 15.0298C61.3462 14.5513 61.5317 13.8774 61.5317 13.0083C61.5317 12.144 61.3462 11.4702 60.9751 10.9868C60.5991 10.5083 60.0718 10.269 59.3931 10.269C58.7095 10.269 58.1821 10.5083 57.811 10.9868C57.4399 11.4653 57.2544 12.1392 57.2544 13.0083C57.2544 13.8823 57.4399 14.5586 57.811 15.0371C58.1821 15.5156 58.7095 15.7549 59.3931 15.7549ZM59.3931 17.1538C58.2212 17.1538 57.3008 16.7852 56.6318 16.0479C55.9629 15.3105 55.6284 14.2974 55.6284 13.0083C55.6284 11.7241 55.9653 10.7134 56.6392 9.97607C57.3081 9.23877 58.2261 8.87012 59.3931 8.87012C60.5552 8.87012 61.4707 9.23877 62.1396 9.97607C62.8135 10.7134 63.1504 11.7241 63.1504 13.0083C63.1504 14.2974 62.8159 15.3105 62.147 16.0479C61.478 16.7852 60.5601 17.1538 59.3931 17.1538Z" fill="#959AA7"/>
<path d="M82.5857 16.7071L86.8283 12.4645C87.2189 12.0739 87.2189 11.4408 86.8283 11.0503L82.5858 6.8077C82.1953 6.41717 81.5621 6.41717 81.1716 6.8077C80.7811 7.19822 80.7811 7.83139 81.1716 8.22191L84.707 11.7574L81.1715 15.2929C80.781 15.6834 80.781 16.3166 81.1715 16.7071C81.562 17.0976 82.1952 17.0976 82.5857 16.7071Z" fill="#959AA7"/>
</svg>
