<svg width="38" height="38" viewBox="0 0 38 38" fill="none" xmlns="http://www.w3.org/2000/svg">
<g filter="url(#filter0_d_102_1105)">
<path fill-rule="evenodd" clip-rule="evenodd" d="M16.4441 7.63142C16.6215 6.68548 17.4474 6 18.4099 6H19.5901C20.5526 6 21.3785 6.68548 21.5559 7.63142L21.7024 8.41277C22.2093 8.57214 22.6969 8.77515 23.1607 9.01739L23.8173 8.56813C24.6116 8.02466 25.6803 8.12399 26.3609 8.80453L27.1955 9.63912C27.876 10.3197 27.9753 11.3884 27.4319 12.1827L26.9826 12.8393C27.2249 13.3031 27.4279 13.7907 27.5872 14.2976L28.3686 14.4441C29.3145 14.6215 30 15.4474 30 16.4099V17.5901C30 18.5526 29.3145 19.3785 28.3686 19.5559L27.5872 19.7024C27.4279 20.2093 27.2249 20.6969 26.9826 21.1607L27.4319 21.8173C27.9753 22.6116 27.876 23.6803 27.1955 24.3609L26.3609 25.1955C25.6803 25.876 24.6116 25.9753 23.8173 25.4319L23.1607 24.9826C22.6969 25.2249 22.2093 25.4279 21.7024 25.5872L21.5559 26.3686C21.3785 27.3145 20.5526 28 19.5901 28H18.4099C17.4474 28 16.6215 27.3145 16.4441 26.3686L16.2976 25.5872C15.7907 25.4279 15.3031 25.2249 14.8393 24.9826L14.1827 25.4319C13.3884 25.9753 12.3197 25.876 11.6391 25.1955L10.8045 24.3609C10.124 23.6803 10.0247 22.6116 10.5681 21.8173L11.0174 21.1607C10.7751 20.6969 10.5721 20.2093 10.4128 19.7024L9.63142 19.5559C8.68548 19.3785 8 18.5526 8 17.5901V16.4099C8 15.4474 8.68548 14.6215 9.63142 14.4441L10.4128 14.2976C10.5721 13.7907 10.7751 13.3031 11.0174 12.8393L10.5681 12.1827C10.0247 11.3884 10.124 10.3197 10.8045 9.63912L11.6391 8.80453C12.3197 8.12399 13.3884 8.02466 14.1827 8.56813L14.8393 9.01739C15.3031 8.77515 15.7907 8.57214 16.2976 8.41277L16.4441 7.63142ZM19 20C20.6569 20 22 18.6569 22 17C22 15.3431 20.6569 14 19 14C17.3431 14 16 15.3431 16 17C16 18.6569 17.3431 20 19 20Z" fill="#EA4C89"/>
</g>
<defs>
<filter id="filter0_d_102_1105" x="-3" y="-3" width="44" height="44" filterUnits="userSpaceOnUse" color-interpolation-filters="sRGB">
<feFlood flood-opacity="0" result="BackgroundImageFix"/>
<feColorMatrix in="SourceAlpha" type="matrix" values="0 0 0 0 0 0 0 0 0 0 0 0 0 0 0 0 0 0 127 0" result="hardAlpha"/>
<feOffset dy="2"/>
<feGaussianBlur stdDeviation="4"/>
<feComposite in2="hardAlpha" operator="out"/>
<feColorMatrix type="matrix" values="0 0 0 0 0.917647 0 0 0 0 0.298039 0 0 0 0 0.537255 0 0 0 0.3 0"/>
<feBlend mode="normal" in2="BackgroundImageFix" result="effect1_dropShadow_102_1105"/>
<feBlend mode="normal" in="SourceGraphic" in2="effect1_dropShadow_102_1105" result="shape"/>
</filter>
</defs>
</svg>
