<svg width="44" height="44" viewBox="0 0 44 44" fill="none" xmlns="http://www.w3.org/2000/svg">
<path d="M0 22C0 16.4177 0 13.6266 0.688955 11.3554C2.24016 6.24182 6.24182 2.24016 11.3554 0.688955C13.6266 0 16.4177 0 22 0C27.5823 0 30.3734 0 32.6446 0.688955C37.7582 2.24016 41.7598 6.24182 43.311 11.3554C44 13.6266 44 16.4177 44 22C44 27.5823 44 30.3734 43.311 32.6446C41.7598 37.7582 37.7582 41.7598 32.6446 43.311C30.3734 44 27.5823 44 22 44C16.4177 44 13.6266 44 11.3554 43.311C6.24182 41.7598 2.24016 37.7582 0.688955 32.6446C0 30.3734 0 27.5823 0 22Z" fill="#F3F3F4"/>
<path d="M23 14C23 13.4477 22.5523 13 22 13C21.4477 13 21 13.4477 21 14L23 14ZM21.2929 28.7071C21.6834 29.0976 22.3166 29.0976 22.7071 28.7071L29.0711 22.3431C29.4616 21.9526 29.4616 21.3195 29.0711 20.9289C28.6805 20.5384 28.0474 20.5384 27.6569 20.9289L22 26.5858L16.3431 20.9289C15.9526 20.5384 15.3195 20.5384 14.9289 20.9289C14.5384 21.3195 14.5384 21.9526 14.9289 22.3431L21.2929 28.7071ZM21 14L21 28H23L23 14L21 14Z" fill="#E41352"/>
</svg>
