<svg width="24" height="24" viewBox="0 0 24 24" fill="none" xmlns="http://www.w3.org/2000/svg">
<path d="M2 5C2 3.34315 3.34315 2 5 2H13C14.6569 2 16 3.34315 16 5V6H10C9.27126 6 8.58803 6.19488 7.99959 6.53537C7.99986 6.52361 8 6.51182 8 6.5C8 5.67157 7.32843 5 6.5 5C5.67157 5 5 5.67157 5 6.5C5 7.32843 5.67157 8 6.5 8C6.51182 8 6.52361 7.99986 6.53537 7.99959C6.19488 8.58803 6 9.27126 6 10V16H5C3.34315 16 2 14.6569 2 13V5Z" fill="#C422ED"/>
<path fill-rule="evenodd" clip-rule="evenodd" d="M11 8C9.34315 8 8 9.34315 8 11V19C8 20.6569 9.34315 22 11 22H19C20.6569 22 22 20.6569 22 19V11C22 9.34315 20.6569 8 19 8H11ZM12.5 14C13.3284 14 14 13.3284 14 12.5C14 11.6716 13.3284 11 12.5 11C11.6716 11 11 11.6716 11 12.5C11 13.3284 11.6716 14 12.5 14ZM14 17.5C14 18.3284 13.3284 19 12.5 19C11.6716 19 11 18.3284 11 17.5C11 16.6716 11.6716 16 12.5 16C13.3284 16 14 16.6716 14 17.5ZM17.5 14C18.3284 14 19 13.3284 19 12.5C19 11.6716 18.3284 11 17.5 11C16.6716 11 16 11.6716 16 12.5C16 13.3284 16.6716 14 17.5 14ZM19 17.5C19 18.3284 18.3284 19 17.5 19C16.6716 19 16 18.3284 16 17.5C16 16.6716 16.6716 16 17.5 16C18.3284 16 19 16.6716 19 17.5Z" fill="#C422ED"/>
</svg>
