<svg width="63" height="24" viewBox="0 0 63 24" fill="none" xmlns="http://www.w3.org/2000/svg">
<path d="M1.94784 17V6.43115H6.19588C7.18709 6.43115 7.9659 6.66797 8.53231 7.1416C9.09383 7.61035 9.37459 8.25244 9.37459 9.06787C9.37459 9.61963 9.19637 10.1152 8.83993 10.5547C8.48348 10.9893 8.04403 11.2505 7.52157 11.3384V11.4629C8.23446 11.5361 8.81063 11.8047 9.25008 12.2686C9.68465 12.7373 9.90194 13.3159 9.90194 14.0044C9.90194 14.937 9.58211 15.6694 8.94246 16.2017C8.30282 16.7339 7.41903 17 6.2911 17H1.94784ZM3.58846 10.9062H5.5367C7.00643 10.9062 7.74129 10.3936 7.74129 9.36816C7.74129 8.87988 7.57284 8.50146 7.23592 8.23291C6.89412 7.95947 6.42049 7.82275 5.81502 7.82275H3.58846V10.9062ZM5.96151 15.6084C7.4703 15.6084 8.22469 15.0347 8.22469 13.8872C8.22469 12.7642 7.43856 12.2026 5.86629 12.2026H3.58846V15.6084H5.96151ZM14.2254 17V12.7373L10.5047 6.43115H12.3284L14.9871 11.0088H15.1116L17.7703 6.43115H19.594L15.866 12.7373V17H14.2254ZM21.0391 17V6.43115H22.5186L27.9458 13.9385H28.063V6.43115H29.6597V17H28.1802L22.7529 9.49268H22.6357V17H21.0391Z" fill="#959AA7"/>
<path d="M49.5857 16.7071L53.8283 12.4645C54.2189 12.0739 54.2189 11.4408 53.8283 11.0503L49.5858 6.8077C49.1953 6.41717 48.5621 6.41717 48.1716 6.8077C47.7811 7.19822 47.7811 7.83139 48.1716 8.22191L51.707 11.7574L48.1715 15.2929C47.781 15.6834 47.781 16.3166 48.1715 16.7071C48.562 17.0976 49.1952 17.0976 49.5857 16.7071Z" fill="#959AA7"/>
</svg>
