<svg width="44" height="44" viewBox="0 0 44 44" fill="none" xmlns="http://www.w3.org/2000/svg">
<path d="M0 22C0 16.4177 0 13.6266 0.688955 11.3554C2.24016 6.24182 6.24182 2.24016 11.3554 0.688955C13.6266 0 16.4177 0 22 0C27.5823 0 30.3734 0 32.6446 0.688955C37.7582 2.24016 41.7598 6.24182 43.311 11.3554C44 13.6266 44 16.4177 44 22C44 27.5823 44 30.3734 43.311 32.6446C41.7598 37.7582 37.7582 41.7598 32.6446 43.311C30.3734 44 27.5823 44 22 44C16.4177 44 13.6266 44 11.3554 43.311C6.24182 41.7598 2.24016 37.7582 0.688955 32.6446C0 30.3734 0 27.5823 0 22Z" fill="#F3F3F4"/>
<path d="M21 28C21 28.5523 21.4477 29 22 29C22.5523 29 23 28.5523 23 28H21ZM22.7071 13.2929C22.3166 12.9024 21.6834 12.9024 21.2929 13.2929L14.9289 19.6569C14.5384 20.0474 14.5384 20.6805 14.9289 21.0711C15.3195 21.4616 15.9526 21.4616 16.3431 21.0711L22 15.4142L27.6569 21.0711C28.0474 21.4616 28.6805 21.4616 29.0711 21.0711C29.4616 20.6805 29.4616 20.0474 29.0711 19.6569L22.7071 13.2929ZM23 28L23 14L21 14L21 28H23Z" fill="#1BBA6E"/>
</svg>
