<svg width="36" height="36" viewBox="0 0 36 36" fill="none" xmlns="http://www.w3.org/2000/svg">
<g filter="url(#filter0_d_102_1274)">
<path fill-rule="evenodd" clip-rule="evenodd" d="M18 26C23.5228 26 28 21.5228 28 16C28 10.4772 23.5228 6 18 6C12.4772 6 8 10.4772 8 16C8 21.5228 12.4772 26 18 26ZM11.6211 11.1719C11.2897 11.6098 11.4573 12.2226 11.9329 12.4972C12.4085 12.7718 13.0109 12.602 13.36 12.1782C13.6492 11.8271 13.978 11.5091 14.3406 11.2309C14.9668 10.7504 15.6816 10.3979 16.4442 10.1935C17.2067 9.98922 18.002 9.9371 18.7846 10.0401C19.2377 10.0998 19.6814 10.2108 20.1074 10.3702C20.6217 10.5627 21.2282 10.4085 21.5028 9.93293C21.7774 9.45734 21.6162 8.84285 21.1102 8.62935C20.4512 8.35124 19.7564 8.1622 19.0442 8.06844C18.0026 7.93131 16.9442 8.00068 15.9294 8.27259C14.9147 8.5445 13.9634 9.01362 13.1299 9.65317C12.56 10.0905 12.0529 10.6016 11.6211 11.1719Z" fill="#EA4C89"/>
</g>
<defs>
<filter id="filter0_d_102_1274" x="-4" y="-4" width="44" height="44" filterUnits="userSpaceOnUse" color-interpolation-filters="sRGB">
<feFlood flood-opacity="0" result="BackgroundImageFix"/>
<feColorMatrix in="SourceAlpha" type="matrix" values="0 0 0 0 0 0 0 0 0 0 0 0 0 0 0 0 0 0 127 0" result="hardAlpha"/>
<feOffset dy="2"/>
<feGaussianBlur stdDeviation="4"/>
<feComposite in2="hardAlpha" operator="out"/>
<feColorMatrix type="matrix" values="0 0 0 0 0.917647 0 0 0 0 0.298039 0 0 0 0 0.537255 0 0 0 0.3 0"/>
<feBlend mode="normal" in2="BackgroundImageFix" result="effect1_dropShadow_102_1274"/>
<feBlend mode="normal" in="SourceGraphic" in2="effect1_dropShadow_102_1274" result="shape"/>
</filter>
</defs>
</svg>
