<svg width="24" height="24" viewBox="0 0 24 24" fill="none" xmlns="http://www.w3.org/2000/svg">
<path fill-rule="evenodd" clip-rule="evenodd" d="M7 4C7 3.44772 7.44772 3 8 3C8.55228 3 9 3.44772 9 4V5H15V4C15 3.44772 15.4477 3 16 3C16.5523 3 17 3.44772 17 4V5C19.2091 5 21 6.79086 21 9V17C21 19.2091 19.2091 21 17 21H7C4.79086 21 3 19.2091 3 17V9C3 6.79086 4.79086 5 7 5V4ZM15 7V8C15 8.55228 15.4477 9 16 9C16.5523 9 17 8.55228 17 8V7C18.1046 7 19 7.89543 19 9V17C19 18.1046 18.1046 19 17 19H7C5.89543 19 5 18.1046 5 17V9C5 7.89543 5.89543 7 7 7V8C7 8.55228 7.44772 9 8 9C8.55228 9 9 8.55228 9 8V7H15ZM7 12C7 11.4477 7.44772 11 8 11H16C16.5523 11 17 11.4477 17 12C17 12.5523 16.5523 13 16 13H8C7.44772 13 7 12.5523 7 12ZM8 15C7.44772 15 7 15.4477 7 16C7 16.5523 7.44772 17 8 17H12C12.5523 17 13 16.5523 13 16C13 15.4477 12.5523 15 12 15H8Z" fill="#959AA7"/>
</svg>
