<svg width="44" height="44" viewBox="0 0 44 44" fill="none" xmlns="http://www.w3.org/2000/svg">
<path fill-rule="evenodd" clip-rule="evenodd" d="M29 15C29 16.6569 27.6569 18 26 18C24.3431 18 23 16.6569 23 15C23 13.3431 24.3431 12 26 12C27.6569 12 29 13.3431 29 15ZM27 15C27 15.5523 26.5523 16 26 16C25.4477 16 25 15.5523 25 15C25 14.4477 25.4477 14 26 14C26.5523 14 27 14.4477 27 15ZM30 15C30 15.3453 29.9562 15.6804 29.874 16H32C32.5523 16 33 15.5523 33 15C33 14.4477 32.5523 14 32 14H29.874C29.9562 14.3196 30 14.6547 30 15ZM12 16H22.126C22.0438 15.6804 22 15.3453 22 15C22 14.6547 22.0438 14.3196 22.126 14H12C11.4477 14 11 14.4477 11 15C11 15.5523 11.4477 16 12 16Z" fill="black"/>
<path fill-rule="evenodd" clip-rule="evenodd" d="M29 29C29 30.6569 27.6569 32 26 32C24.3431 32 23 30.6569 23 29C23 27.3431 24.3431 26 26 26C27.6569 26 29 27.3431 29 29ZM27 29C27 29.5523 26.5523 30 26 30C25.4477 30 25 29.5523 25 29C25 28.4477 25.4477 28 26 28C26.5523 28 27 28.4477 27 29ZM30 29C30 29.3453 29.9562 29.6804 29.874 30H32C32.5523 30 33 29.5523 33 29C33 28.4477 32.5523 28 32 28H29.874C29.9562 28.3196 30 28.6547 30 29ZM12 30H22.126C22.0438 29.6804 22 29.3453 22 29C22 28.6547 22.0438 28.3196 22.126 28H12C11.4477 28 11 28.4477 11 29C11 29.5523 11.4477 30 12 30Z" fill="black"/>
<path fill-rule="evenodd" clip-rule="evenodd" d="M15 22C15 20.3431 16.3431 19 18 19C19.6569 19 21 20.3431 21 22C21 23.6569 19.6569 25 18 25C16.3431 25 15 23.6569 15 22ZM17 22C17 21.4477 17.4477 21 18 21C18.5523 21 19 21.4477 19 22C19 22.5523 18.5523 23 18 23C17.4477 23 17 22.5523 17 22ZM14 22C14 21.6547 14.0438 21.3196 14.126 21L12 21C11.4477 21 11 21.4477 11 22C11 22.5523 11.4477 23 12 23L14.126 23C14.0438 22.6804 14 22.3453 14 22ZM32 21L21.874 21C21.9562 21.3196 22 21.6547 22 22C22 22.3453 21.9562 22.6804 21.874 23L32 23C32.5523 23 33 22.5523 33 22C33 21.4477 32.5523 21 32 21Z" fill="black"/>
</svg>
