<svg width="24" height="24" viewBox="0 0 24 24" fill="none" xmlns="http://www.w3.org/2000/svg">
<path d="M10.1599 6.99979L15.5263 3.90148C16.0046 3.62533 16.6162 3.78921 16.8924 4.2675L18.4699 6.99993L10.1599 6.99979L7.11328 6.9999L9.49991 2.86613C9.77606 2.38784 10.3876 2.22397 10.8659 2.50011L13.3298 3.92262L7.99998 6.99979H10.1599Z" fill="#2AB3BC"/>
<path d="M3 10C3 8.89543 3.89543 8 5 8H19C20.1046 8 21 8.89543 21 10V12H18C16.8954 12 16 12.8954 16 14C16 15.1046 16.8954 16 18 16H21V18C21 19.1046 20.1046 20 19 20H5C3.89543 20 3 19.1046 3 18V10Z" fill="#2AB3BC"/>
<path d="M21 15C21.5523 15 22 14.5523 22 14C22 13.4477 21.5523 13 21 13H18C17.4477 13 17 13.4477 17 14C17 14.5523 17.4477 15 18 15H21Z" fill="#2AB3BC"/>
</svg>
