<svg width="200" height="157" viewBox="0 0 200 157" fill="none" xmlns="http://www.w3.org/2000/svg">
<ellipse opacity="0.3" cx="100" cy="145.152" rx="100" ry="11.8481" fill="#95A7B8"/>
<path fill-rule="evenodd" clip-rule="evenodd" d="M19.7559 24.6965V35.5572L41.7559 33.5826C40.4225 31.2788 35.9558 25.8815 28.7559 22.7218C22.7559 20.0886 19.7559 19.7599 19.7559 24.6965ZM81.4353 113.557H105.435V145.127C105.435 146.231 104.54 147.127 103.435 147.127H83.4353C82.3307 147.127 81.4353 146.231 81.4353 145.127V113.557ZM174 113.557H144V143.127C144 145.336 145.791 147.127 148 147.127H171C172.657 147.127 174 145.784 174 144.127V113.557Z" fill="#9D255D"/>
<path fill-rule="evenodd" clip-rule="evenodd" d="M65.0236 21.7414C66.8808 18.9016 69.4883 15.0871 70.7562 13.8352C72.7562 11.8605 75.7562 13.8352 78.7562 17.7846C81.1638 20.954 84.8594 27.3029 86.2252 33.259C90.5132 32.1403 94.995 31.3798 99.6186 31.0201C110.117 22.8907 123.507 18.0181 138.091 18.0181C171.801 18.0181 199.128 44.0507 199.128 76.1636C199.128 107.668 172.826 133.32 140 134.281V145.126C140 146.231 139.105 147.126 138 147.126H114C112.895 147.126 112 146.231 112 145.126V136.902C109.952 137.063 107.876 137.145 105.777 137.145C95.7376 137.145 86.2327 135.262 77.756 131.9V141.126C77.756 144.44 75.0697 147.126 71.756 147.126H52.756C51.0991 147.126 49.756 145.783 49.756 144.126V121.446C23.1552 120.909 1.75513 99.0168 1.75513 72.0885C1.75513 45.7983 22.153 24.3079 47.8738 22.8053L47.7562 22.7215C51.0895 22.3923 59.1562 21.7341 64.7562 21.7341C64.8475 21.7341 64.9366 21.7366 65.0236 21.7414Z" fill="#F15DA1"/>
<path d="M40.7563 30.6205C45.7563 28.6457 49.7563 27.6583 56.7563 28.6456" stroke="#F983B9" stroke-width="3" stroke-linecap="round"/>
<ellipse cx="135.936" cy="72.6181" rx="58.8829" ry="54.6" fill="#FC8CC0"/>
<ellipse cx="20.5678" cy="58.4738" rx="4.12488" ry="6.1579" fill="#2E1C6E"/>
<ellipse cx="49.4419" cy="56.4211" rx="4.12488" ry="6.1579" fill="#2E1C6E"/>
<path d="M36.7561 91.8355C39.4228 92.8229 46.1561 93.8102 51.7561 89.8608" stroke="#9D255D" stroke-width="1.5" stroke-linecap="round"/>
<path d="M35.0049 82.4365C40.7797 84.0346 53.8693 83.7789 60.0292 69.9713M54.2543 69.0125C56.8209 68.3733 62.3391 68.4372 63.8791 73.8068" stroke="#412982" stroke-width="1.5" stroke-linecap="round"/>
<path d="M16.4429 48.2106C17.6651 46.6616 21.0261 44.4931 24.6926 48.2106" stroke="#2E1C6E" stroke-linecap="round"/>
<path d="M45.317 46.1579C46.8884 44.4279 50.0312 42.5679 53.5668 46.1579" stroke="#2E1C6E" stroke-linecap="round"/>
<path d="M163 36.5443C166.333 31.6076 170.8 20.5494 162 15.8101C151 9.8861 150 28.6456 160 25.6836C170 22.7215 172 14.8228 163 1" stroke="#EF529B" stroke-width="2" stroke-linecap="round" stroke-linejoin="round"/>
<rect x="8.19312" y="60.5264" width="32.9991" height="26.6842" rx="13.3421" fill="#9D255D"/>
<rect x="4.06824" y="60.5264" width="32.9991" height="26.6842" rx="13.3421" fill="#F982B9"/>
<path d="M159.002 37.5306C157.897 35.6418 160.169 34.1293 161.001 33.5818C164.001 31.6075 166.43 31.922 167.028 34.9548C167.219 35.9239 167.931 38.8515 166.43 39.8555C164.001 41.4799 159.579 38.5184 159.002 37.5306Z" fill="#F776B1"/>
<ellipse cx="14.3805" cy="73.8684" rx="4.12488" ry="5.13158" fill="#9D255D"/>
<ellipse cx="24.6926" cy="73.8684" rx="4.12488" ry="5.13158" fill="#9D255D"/>
<path d="M98.3881 47.3255C99.0282 46.7996 99.1208 45.8544 98.5949 45.2143C98.0691 44.5742 97.1238 44.4816 96.4837 45.0075L98.3881 47.3255ZM85.3883 78.1071C85.5098 78.9266 86.2726 79.4924 87.0921 79.3709C87.9115 79.2494 88.4774 78.4866 88.3559 77.6671L85.3883 78.1071ZM96.4837 45.0075C91.7015 48.9363 88.6438 55.1748 86.9239 61.3231C85.2009 67.4821 84.75 73.802 85.3883 78.1071L88.3559 77.6671C87.7924 73.8669 88.1769 67.9797 89.813 62.1313C91.452 56.2722 94.2771 50.7029 98.3881 47.3255L96.4837 45.0075Z" fill="#FFBBDB"/>
<path d="M87.8726 85.7859C89.2609 91.7637 93.5694 98.8546 97.3088 101.583" stroke="#FFEBF5" stroke-width="3" stroke-linecap="round"/>
<path d="M107.437 36.9751C114.394 30.0728 128.038 25.1092 140.437 26.1143" stroke="#2E1C6E" stroke-width="5" stroke-linecap="round"/>
</svg>
